<?xml version="1.0" encoding="utf-8"?>
<svg viewBox="1026.5 816.7 1055.3 443.9" width="1055.3" height="443.9" xmlns="http://www.w3.org/2000/svg">
  <defs>
    <style type="text/css">
	.st0{fill:#FFFFFF;}
	.st1{fill:#D8DE26;}
	.st2{fill:#0D6737;}
	.st3{fill:#3BB54C;}
	.st4{fill:#08683A;}
	.st5{fill:#096839;}
	.st6{fill:#8EC640;}
	.st7{fill:#39B54C;}
	.st8{fill:#1E224F;}
	.st9{fill:#07673A;}
	.st10{fill:#0C9447;}
</style>
  </defs>
  <g id="XMLID_126_">
    <path id="XMLID_158_" class="st6" d="M1977.9,926.8h-105.1v271.1h53.4c3.8-9.2,10.1-17,18.1-22.8h-14v-63.3h-30.9v-48.3h130v111.5 h-23.8c8,5.7,14.3,13.6,18.1,22.8h53.4V1077L1977.9,926.8z"/>
    <path id="XMLID_164_" class="st1" d="M2029.3,1063.6h-130v48.3h30.9v63.3h14c8.6-6.2,19.2-9.9,30.6-9.9s22,3.7,30.6,9.9h23.8 V1063.6z"/>
    <path id="XMLID_2_" class="st1" d="M1837.7,896.7h-397c-16.8,0-30.5,13.7-30.5,30.5v236.4h427.5V896.7z"/>
    <path id="XMLID_144_" class="st4" d="M1852.7,1163.7h-489.5V854.8h489.5V1163.7z M1393.2,1148.7h429.5V884.8h-429.5V1148.7z"/>
    <rect id="XMLID_160_" x="1837.7" y="1163.7" class="st8" width="0" height="34.2"/>
    <path id="XMLID_31_" class="st9" d="M1360,1163.7h-7v34.2h7h38.8c7.9-19.1,26.8-32.6,48.7-32.6s40.8,13.5,48.7,32.6h217.3 c7.9-19.1,26.8-32.6,48.7-32.6s40.8,13.5,48.7,32.6h26.8v-34.2H1360z"/>
    <path id="XMLID_173_" class="st9" d="M1371.5,918.1h-138.7c-8.1,0-14.7-6.6-14.7-14.7l0,0c0-8.1,6.6-14.7,14.7-14.7h138.7 c8.1,0,14.7,6.6,14.7,14.7l0,0C1386.2,911.5,1379.6,918.1,1371.5,918.1z"/>
    <path id="XMLID_176_" class="st9" d="M1173.5,918.1h-58.9c-8.1,0-14.7-6.6-14.7-14.7v0c0-8.1,6.6-14.7,14.7-14.7h58.9 c8.1,0,14.7,6.6,14.7,14.7v0C1188.2,911.5,1181.6,918.1,1173.5,918.1z"/>
    <path id="XMLID_170_" class="st9" d="M1290.4,1066.8h-138.7c-8.1,0-14.7-6.6-14.7-14.7l0,0c0-8.1,6.6-14.7,14.7-14.7h138.7 c8.1,0,14.7,6.6,14.7,14.7l0,0C1305,1060.2,1298.5,1066.8,1290.4,1066.8z"/>
    <path id="XMLID_141_" class="st9" d="M1098,1066.8h-56.8c-8.1,0-14.7-6.6-14.7-14.7v0c0-8.1,6.6-14.7,14.7-14.7h56.8 c8.1,0,14.7,6.6,14.7,14.7l0,0C1112.7,1060.2,1106.1,1066.8,1098,1066.8z"/>
    <path id="XMLID_128_" class="st9" d="M1373.6,990.4h-197.7c-8.1,0-14.7-6.6-14.7-14.7l0,0c0-8.1,6.6-14.7,14.7-14.7h197.7 c8.1,0,14.7,6.6,14.7,14.7l0,0C1388.3,983.8,1381.7,990.4,1373.6,990.4z"/>
    <path id="XMLID_124_" class="st9" d="M1117.6,990.4h-18.7c-8.1,0-14.7-6.6-14.7-14.7l0,0c0-8.1,6.6-14.7,14.7-14.7h18.7 c8.1,0,14.7,6.6,14.7,14.7l0,0C1132.3,983.8,1125.7,990.4,1117.6,990.4z"/>
    <path id="XMLID_32_" class="st9" d="M1363.5,1144.8h-258.1c-8.1,0-14.7-6.6-14.7-14.7l0,0c0-8.1,6.6-14.7,14.7-14.7h258.1 c8.1,0,14.7,6.6,14.7,14.7l0,0C1378.2,1138.2,1371.6,1144.8,1363.5,1144.8z"/>
    <path id="XMLID_289_" class="st10" d="M1872.8,1198h-34.9V869c0-7.4-6-13.5-13.5-13.5h-32.9c-3.9,0-7-3.2-7-7v-24.8 c0-3.9,3.2-7,7-7h46.9c19,0,34.4,15.4,34.4,34.4v346.7V1198z"/>
    <polygon id="XMLID_288_" class="st0" points="1958.5,951 2029.3,1062.3 1899.3,1062.3 1899.3,951 &#9;"/>
    <rect id="XMLID_287_" x="2060.6" y="1163.7" class="st9" width="21.2" height="34.2"/>
    <rect id="XMLID_286_" x="2060.6" y="1115.3" class="st0" width="16.3" height="34.5"/>
    <path id="XMLID_156_" class="st9" d="M1799.9,1197.9c-7.2-13.5-21.4-22.6-37.7-22.6s-30.5,9.2-37.7,22.6c-3.2,6-5,12.8-5,20 c0,23.5,19.1,42.7,42.7,42.7s42.7-19.1,42.7-42.7C1804.9,1210.7,1803.1,1203.9,1799.9,1197.9z"/>
    <path id="XMLID_154_" class="st9" d="M1485.2,1197.9c-7.2-13.5-21.4-22.6-37.7-22.6s-30.5,9.2-37.7,22.6c-3.2,6-5,12.8-5,20 c0,23.5,19.1,42.7,42.7,42.7s42.7-19.1,42.7-42.7C1490.2,1210.7,1488.4,1203.9,1485.2,1197.9z"/>
    <circle id="XMLID_277_" class="st0" cx="1447.5" cy="1217.9" r="23.8"/>
    <circle id="XMLID_279_" class="st0" cx="1762.2" cy="1217.9" r="23.8"/>
    <path id="XMLID_157_" class="st9" d="M2012.5,1197.9c-7.2-13.5-21.4-22.6-37.7-22.6s-30.5,9.2-37.7,22.6c-3.2,6-5,12.8-5,20 c0,23.5,19.1,42.7,42.7,42.7s42.7-19.1,42.7-42.7C2017.6,1210.7,2015.7,1203.9,2012.5,1197.9z"/>
    <circle id="XMLID_281_" class="st0" cx="1974.9" cy="1217.9" r="23.8"/>
  </g>
</svg>