<?xml version="1.0" encoding="utf-8"?>
<svg viewBox="198.565 61.262 654.543 593.245" width="654.543" height="593.245" xmlns="http://www.w3.org/2000/svg">
  <defs>
    <style type="text/css">
	.st0{fill:#FFFFFF;}
	.st1{fill:#D8DE26;}
	.st2{fill:#0D6737;}
	.st3{fill:#3BB54C;}
	.st4{fill:#08683A;}
	.st5{fill:#096839;}
	.st6{fill:#8EC640;}
	.st7{fill:#39B54C;}
	.st8{fill:#1E224F;}
	.st9{fill:#07673A;}
	.st10{fill:#0C9447;}
</style>
  </defs>
  <g id="XMLID_186_">
    <path id="XMLID_17_" class="st1" d="M383.9,190.3h378.5c11.5,0,20.1,11.9,17.5,24.4l-40.3,193.5c-1.9,9-9.1,15.4-17.5,15.4H424.7 c-8.3,0-15.6-6.4-17.5-15.4l-40.8-193.5C363.8,202.3,372.3,190.3,383.9,190.3z"/>
    <path id="XMLID_36_" class="st2" d="M610.6,443.9c-53.2,0.1-106.3-0.1-159.5,0.1c-18.9,0.1-20.8,4.9-11.2,22.6 c8.2,15.2,20.9,18.3,36,18.2c90.9-0.2,181.7-0.2,272.6,0.1c13.4,0.1,33.2-4.7,33.1,16.9c-0.1,22.4-20.4,15.7-33.2,15.7 c-92.2,0.5-184.4-0.5-276.6,0.6c-32.2,0.4-51.8-15.7-64.9-44.5c-10.3-22.7-15.2-47.3-20.4-71.7c-3-13.9-9.8-18.8-22.5-18.5 c-19.5,0.5-39.1,0.3-58.5-0.2c-10.7-0.3-21.1-3-21.4-17.1c-0.3-14.4,10.3-17.1,20.9-17.5c17.5-0.6,35-0.2,52.5-0.6 c5.6-0.2,13.5,1.5,13.4-8.4c-0.2-8.3-2.8-15.7-12.5-16.2c-4.7-0.2-9.4-0.3-14.1-0.9c-9.5-1.2-17.4-5.3-17.9-16.7 c-0.5-10.2,6.3-15.1,14.9-17.3c6.7-1.8,16.4,0.2,15.1-12.2c-1.3-12.4-10.2-13.5-19.5-13.5c-28.3-0.1-56.6,0.1-84.8-0.4 c-11.6-0.2-25.1-0.8-24.6-17.9c0.5-16.9,13.7-16.9,25.4-17c24.9-0.2,49.8-0.4,74.7,0.1c12.2,0.2,17.7-3.3,13.8-17.5 c-8.1-29.4-11.8-60.2-23.8-88.4c-7.4-17.4-19-26.5-37.8-25.6c-20.1,1-40.4,0.3-60.6,0c-11.3-0.2-20.5-4.1-20.2-18.1 c0.3-13.2,9.9-16.1,19.8-16.3c22.2-0.5,44.4-0.7,66.6,0.1c28.3,0.9,48.2,16.1,60,43.1c3.7,8.4,7.1,17,10,25.8 c12,36.6,11.9,36.7,49.4,36.7c138,0,276-0.1,414,0c35.3,0,39,5,30.4,41.5c-16.2,69.3-33,138.5-48.5,208 c-4.4,19.6-13.9,27.1-32.5,26.9C715.6,443.4,663.1,443.8,610.6,443.9z M594.5,202.9c-66,0-132-0.3-197.9,0.3 c-7.2,0.1-20-6.8-20.9,8.2c-1,16,11.3,16.7,22.7,16.6c17.5-0.2,35-0.2,52.5,0.3c9.6,0.3,17.7,4.4,18.4,15.8 c0.8,12.8-7.6,17.7-18,18.4c-14.1,0.9-28.3,0.1-42.4,1c-7,0.5-18.4-4.5-19,8.8c-0.7,12.7,8,16.8,19,16c4-0.3,8.1-0.4,12.1,0 c13.3,1.3,32.9-4.6,33.7,16.7c0.9,22-18.7,17.1-32.1,18.5c-7.4,0.8-18.1-2.8-18.1,10.6c0.1,12.4,9.1,14.2,18.6,14.2 c17.5,0.1,35-0.2,52.5,0.3c10.6,0.3,21.6,2.6,21.9,16.6c0.3,15.4-11.3,17.8-22.6,18.1c-14.8,0.5-29.6,0.1-44.4,0.4 c-5.1,0.1-12-0.8-12.3,7.3c-0.3,7.2,1.6,14.6,9.8,16.6c3.9,1,8,0.9,12,0.9c103,0.1,206-0.2,309,0.3c14.8,0.1,21.6-5.7,25.1-20.9 c12.3-54.9,25.3-109.7,38.6-164.3c4.1-16.6-0.5-21.3-16.3-21.1C729.2,203.3,661.9,202.9,594.5,202.9z"/>
    <path id="XMLID_33_" class="st3" d="M769.1,592.6c0.2,32.9-26.6,61.5-57.9,61.9c-31.9,0.5-59.4-28.5-59.3-62.7 c0.1-33.7,26.1-61.5,57.8-61.7C742.3,529.8,769,557.9,769.1,592.6z M708.2,618.8c17.1,0.2,28.5-10.8,28.1-26.1 c-0.4-16.7-9.3-26.4-24.8-27.8c-14.4-1.3-28.5,12.8-27.3,27.6C685.5,608.8,694.3,618.4,708.2,618.8z"/>
    <path id="XMLID_30_" class="st3" d="M425.5,591.8c0.2-34.3,25.5-61.6,57.3-61.8c32.6-0.3,58.7,27.8,58.5,62.9 c-0.2,33.7-26,61.3-57.5,61.6C451,654.8,425.3,627.2,425.5,591.8z M481.8,620c16.1-0.5,29.7-14.5,27.8-29 c-2.1-15.6-10.5-26-26.5-26.2c-14.2-0.2-27.2,13.9-26,28.9C458.4,610.3,468.2,618.5,481.8,620z"/>
    <path id="XMLID_29_" class="st2" d="M256.8,288.7c13.4,0,26.9-0.7,40.3,0.2c9.6,0.7,17,6.3,16.5,17.7c-0.4,10.1-7.4,15.7-16.2,15.9 c-27.5,0.6-55,0.7-82.5-0.1c-9.6-0.3-16.9-6.2-16.3-17.7c0.6-11.5,8.5-15.7,18-16.1c13.4-0.5,26.8-0.2,40.3-0.2 C256.8,288.5,256.8,288.6,256.8,288.7z"/>
  </g>
</svg>