<?xml version="1.0" encoding="utf-8"?>
<svg viewBox="164.2 1334.8 709.8 495.2" width="709.8" height="495.2" xmlns="http://www.w3.org/2000/svg">
  <defs>
    <style type="text/css">
	.st0{fill:#FFFFFF;}
	.st1{fill:#D8DE26;}
	.st2{fill:#0D6737;}
	.st3{fill:#3BB54C;}
	.st4{fill:#08683A;}
	.st5{fill:#096839;}
	.st6{fill:#8EC640;}
	.st7{fill:#39B54C;}
	.st8{fill:#1E224F;}
	.st9{fill:#07673A;}
	.st10{fill:#0C9447;}
</style>
  </defs>
  <g id="XMLID_193_">
    <path id="XMLID_130_" class="st5" d="M544.4,1477.3H405.8c-8.1,0-14.7-6.6-14.7-14.7l0,0c0-8.1,6.6-14.7,14.7-14.7h138.7 c8.1,0,14.7,6.6,14.7,14.7l0,0C559.1,1470.8,552.5,1477.3,544.4,1477.3z"/>
    <path id="XMLID_127_" class="st5" d="M568.1,1626H344.9c-8.1,0-14.7-6.6-14.7-14.7l0,0c0-8.1,6.6-14.7,14.7-14.7h223.1 c8.1,0,14.7,6.6,14.7,14.7l0,0C582.8,1619.4,576.2,1626,568.1,1626z"/>
    <path id="XMLID_120_" class="st5" d="M279,1626H178.9c-8.1,0-14.7-6.6-14.7-14.7l0,0c0-8.1,6.6-14.7,14.7-14.7H279 c8.1,0,14.7,6.6,14.7,14.7l0,0C293.7,1619.4,287.1,1626,279,1626z"/>
    <path id="XMLID_103_" class="st5" d="M508.1,1549.6H309.8c-8.1,0-14.7-6.6-14.7-14.7l0,0c0-8.1,6.6-14.7,14.7-14.7h198.4 c8.1,0,14.7,6.6,14.7,14.7l0,0C522.8,1543.1,516.2,1549.6,508.1,1549.6z"/>
    <path id="XMLID_28_" class="st5" d="M394.1,1704H249.4c-8.1,0-14.7-6.6-14.7-14.7v0c0-8.1,6.6-14.7,14.7-14.7h144.7 c8.1,0,14.7,6.6,14.7,14.7v0C408.8,1697.4,402.2,1704,394.1,1704z"/>
    <circle id="XMLID_8_" class="st1" cx="769.4" cy="1382.4" r="47.6"/>
    <path id="XMLID_20_" class="st7" d="M731.9,1429.6l23.7,7.7c13.8,4.5,21.3,19.4,16.7,33.2l-46.2,138.5l49.2,57.2 c8.2,9.6,12.8,21.8,12.8,34.4v104.7c0,13.6-11.1,24.7-24.7,24.7l0,0c-13.5,0-24.5-10.8-24.7-24.3l-1.5-83.3 c-0.2-13.3-5.5-26-14.7-35.6l-82.9-86.3l43-129l-35.6,0.3c-12.4,0.1-24.3,5.2-33,14.1l-27.3,28.1c-9.1,9.3-24.1,9.3-33.2,0l0,0 c-8.8-9.1-8.7-23.6,0.3-32.5l40.1-39.9c8.4-8.4,19.7-13.2,31.6-13.5l80.2-2.1C714.7,1425.6,723.5,1426.8,731.9,1429.6z"/>
    <path id="XMLID_11_" class="st5" d="M633.5,1627.9l36,37.2l-37.9,44.6c-7,8.2-17.2,12.9-27.9,12.9H484.5 c-13.4,0-24.2-10.8-24.2-24.2l0,0c0-13.4,10.8-24.2,24.2-24.2h95c11.3,0,21.9-5.2,28.8-14.1L633.5,1627.9z"/>
    <path id="XMLID_22_" class="st5" d="M751.9,1577.2l9.1,18.9c5.3,11,16.4,17.9,28.5,17.9h61.8c12.5,0,22.7-10.1,22.7-22.7l0,0 c0-12.5-10.1-22.7-22.7-22.7h-30.4c-13,0-24.7-8-29.5-20.1l-15-38.2c-0.2-0.5-0.8-0.4-1,0L751.9,1577.2z"/>
  </g>
</svg>