<?xml version="1.0" encoding="utf-8"?>
<svg viewBox="915.1 191.63 1170.458 399.17" width="1170.458" height="399.17" xmlns="http://www.w3.org/2000/svg">
  <defs>
    <style type="text/css">
	.st0{fill:#FFFFFF;}
	.st1{fill:#D8DE26;}
	.st2{fill:#0D6737;}
	.st3{fill:#3BB54C;}
	.st4{fill:#08683A;}
	.st5{fill:#096839;}
	.st6{fill:#8EC640;}
	.st7{fill:#39B54C;}
	.st8{fill:#1E224F;}
	.st9{fill:#07673A;}
	.st10{fill:#0C9447;}
</style>
  </defs>
  <g id="XMLID_145_">
    <circle id="XMLID_12_" class="st1" cx="1381.7" cy="525.1" r="65.7"/>
    <circle id="XMLID_13_" class="st1" cx="1949.5" cy="525.1" r="65.7"/>
    <path id="XMLID_26_" class="st4" d="M2076.3,453.1c0,0,0-52.4-19.7-67.8c-19.7-15.4-50.2-31.9-89.6-46.2c0,0-20.3-8.6-36-27 c-15.7-18.2-95.5-98.8-106.5-104.4c-11-5.6-22.3-11-44.4-14.5c-20.2-3.2-443.9-0.6-518.3-0.1c-6.6,0-12.4,4.6-13.9,11.1 c-6.9,28.9-23.6,114.2-21.1,253.2c0,0-5.3,0.3-5.9,3.9c-0.6,2.9-4.5,31-5.4,55.3c-0.3,8.7,6.8,16,15.5,16h78.5 c-0.3-2.5-0.4-5-0.4-7.5c0-40.1,32.6-72.7,72.7-72.7s72.7,32.6,72.7,72.7c0,2.5-0.1,5.1-0.4,7.5h350.4c0,0,13.3,9.3,35.6,8.3 c5.6-0.3,20-0.4,38.5-0.4c-1.1-5-1.7-10.1-1.7-15.4c0-40.1,32.6-72.7,72.7-72.7c40.1,0,72.7,32.6,72.7,72.7 c0,5.5-0.6,10.8-1.8,15.9c2.6,0,4,0,4,0s46.2,0.3,56.6-21.5C2091.4,497.7,2081.3,457.8,2076.3,453.1z"/>
    <path id="XMLID_21_" class="st0" d="M1395,212.7V338h-144.2c3.8-72,21.5-125.3,21.5-125.3S1395,212.7,1395,212.7z"/>
    <path id="XMLID_19_" class="st0" d="M1756.7,212.7V338h160.9c0,0-82.2-88.3-100-105.4S1756.7,212.7,1756.7,212.7L1756.7,212.7z"/>
    <rect id="XMLID_27_" x="1414.4" y="212.7" class="st0" width="150.6" height="125.3"/>
    <rect id="XMLID_9_" x="1586" y="212.7" class="st0" width="150.6" height="125.3"/>
    <path id="XMLID_106_" class="st0" d="M2076.3,453.1l-38.6,0.3c-0.5-19.1-5-56-5-56h33C2076.2,418.5,2076.3,453,2076.3,453.1z"/>
    <path id="XMLID_10_" class="st5" d="M1220.2,232.4h-138.7c-8.1,0-14.7-6.6-14.7-14.7v0c0-8.1,6.6-14.7,14.7-14.7h138.7 c8.1,0,14.7,6.6,14.7,14.7v0C1234.9,225.8,1228.3,232.4,1220.2,232.4z"/>
    <path id="XMLID_15_" class="st5" d="M1178.9,381.1h-138.7c-8.1,0-14.7-6.6-14.7-14.7v0c0-8.1,6.6-14.7,14.7-14.7h138.7 c8.1,0,14.7,6.6,14.7,14.7v0C1193.6,374.5,1187,381.1,1178.9,381.1z"/>
    <path id="XMLID_16_" class="st5" d="M986.6,381.1h-56.8c-8.1,0-14.7-6.6-14.7-14.7v0c0-8.1,6.6-14.7,14.7-14.7h56.8 c8.1,0,14.7,6.6,14.7,14.7v0C1001.2,374.5,994.7,381.1,986.6,381.1z"/>
    <path id="XMLID_14_" class="st5" d="M1236.2,304.7h-198.4c-8.1,0-14.7-6.6-14.7-14.7v0c0-8.1,6.6-14.7,14.7-14.7h198.4 c8.1,0,14.7,6.6,14.7,14.7v0C1250.8,298.1,1244.3,304.7,1236.2,304.7z"/>
    <path id="XMLID_18_" class="st5" d="M1230.9,459.1H972.8c-8.1,0-14.7-6.6-14.7-14.7v0c0-8.1,6.6-14.7,14.7-14.7h258.1 c8.1,0,14.7,6.6,14.7,14.7v0C1245.6,452.5,1239,459.1,1230.9,459.1z"/>
  </g>
</svg>