<?xml version="1.0" encoding="utf-8"?>
<svg viewBox="1253.3 1373.575 721.7 419.325" width="721.7" height="419.325" xmlns="http://www.w3.org/2000/svg">
  <defs>
    <style type="text/css">
	.st0{fill:#FFFFFF;}
	.st1{fill:#D8DE26;}
	.st2{fill:#0D6737;}
	.st3{fill:#3BB54C;}
	.st4{fill:#08683A;}
	.st5{fill:#096839;}
	.st6{fill:#8EC640;}
	.st7{fill:#39B54C;}
	.st8{fill:#1E224F;}
	.st9{fill:#07673A;}
	.st10{fill:#0C9447;}
</style>
  </defs>
  <g id="XMLID_55_">
    <path id="XMLID_217_" class="st7" d="M1697.7,1465.7h-147.9c-10.1,0-18.2-8.2-18.2-18.2v0c0-10.1,8.2-18.2,18.2-18.2h147.9 c10.1,0,18.2,8.2,18.2,18.2v0C1716,1457.6,1707.8,1465.7,1697.7,1465.7z"/>
    <path id="XMLID_214_" class="st7" d="M1480.4,1465.7h-60.3c-10.1,0-18.2-8.2-18.2-18.2l0,0c0-10.1,8.2-18.2,18.2-18.2h60.3 c10.1,0,18.2,8.2,18.2,18.2l0,0C1498.6,1457.6,1490.5,1465.7,1480.4,1465.7z"/>
    <path id="XMLID_211_" class="st9" d="M1540.7,1650.6h-147.9c-10.1,0-18.2-8.2-18.2-18.2l0,0c0-10.1,8.2-18.2,18.2-18.2h147.9 c10.1,0,18.2,8.2,18.2,18.2l0,0C1558.9,1642.5,1550.7,1650.6,1540.7,1650.6z"/>
    <path id="XMLID_208_" class="st9" d="M1329.6,1650.6h-58.1c-10.1,0-18.2-8.2-18.2-18.2l0,0c0-10.1,8.2-18.2,18.2-18.2h58.1 c10.1,0,18.2,8.2,18.2,18.2l0,0C1347.8,1642.5,1339.6,1650.6,1329.6,1650.6z"/>
    <path id="XMLID_195_" class="st9" d="M1632.1,1555.6h-212.8c-10.1,0-18.2-8.2-18.2-18.2v0c0-10.1,8.2-18.2,18.2-18.2h212.8 c10.1,0,18.2,8.2,18.2,18.2v0C1650.3,1547.5,1642.1,1555.6,1632.1,1555.6z"/>
    <path id="XMLID_191_" class="st9" d="M1351.1,1555.6h-16.3c-10.1,0-18.2-8.2-18.2-18.2v0c0-10.1,8.2-18.2,18.2-18.2h16.3 c10.1,0,18.2,8.2,18.2,18.2v0C1369.3,1547.5,1361.1,1555.6,1351.1,1555.6z"/>
    <path id="XMLID_143_" class="st9" d="M1620.9,1747.6h-279c-10.1,0-18.2-8.2-18.2-18.2l0,0c0-10.1,8.2-18.2,18.2-18.2h279 c10.1,0,18.2,8.2,18.2,18.2l0,0C1639.2,1739.5,1631,1747.6,1620.9,1747.6z"/>
    <path id="XMLID_167_" class="st9" d="M1939.7,1792.9h-316.8c-19.4,0-35-15.8-35-35v-205.2c0-15.2,12.3-27.4,27.4-27.4h342.9 c9.3,0,16.8,7.6,16.8,16.8v215.6C1974.7,1777.1,1959.1,1792.9,1939.7,1792.9z"/>
    <path id="XMLID_159_" class="st7" d="M1601.1,1514.3l155.3-131.5c14.4-12.3,35.6-12.3,50,0l155.3,131.5c8.2,7.1,13,17.4,13,28.4 l0,0l-193.3,150.4L1588,1542.6l0,0C1587.9,1531.6,1592.6,1521.3,1601.1,1514.3z"/>
    <polygon id="XMLID_149_" class="st1" points="1946.4,1448 1616.1,1448 1616.1,1564.6 1738.8,1659.9 1823.9,1659.9 1946.4,1564.6 &#9;&#10;&#9;&#9;"/>
    <rect id="XMLID_142_" x="1658.6" y="1499.1" class="st0" width="245.4" height="10.2"/>
    <rect id="XMLID_135_" x="1658.7" y="1525.2" class="st0" width="245.4" height="10.2"/>
    <rect id="XMLID_189_" x="1658.7" y="1552.2" class="st0" width="245.4" height="10.2"/>
    <rect id="XMLID_133_" x="1658.9" y="1578.3" class="st0" width="245.4" height="10.2"/>
    <polygon id="XMLID_194_" class="st0" points="1881.9,1614.7 1680.4,1614.7 1667.7,1604.5 1895.7,1604.5 &#9;"/>
    <polygon id="XMLID_190_" class="st0" points="1848.4,1640.9 1714.1,1640.9 1700.7,1630.6 1861.6,1630.6 &#9;"/>
    <path id="XMLID_129_" class="st7" d="M1595.2,1779.2l163.8-136c13-10.8,31.8-10.8,44.6,0l163.8,136c0,0-8.8,13.6-27.8,13.6 s-19,0-19,0h-297.7C1622.9,1792.9,1604.6,1794.4,1595.2,1779.2z"/>
  </g>
</svg>