<?xml version="1.0" encoding="utf-8"?>
<svg viewBox="149.613 743.492 719.587 526.208" width="719.587" height="526.208" xmlns="http://www.w3.org/2000/svg">
  <defs>
    <style type="text/css">
	.st0{fill:#FFFFFF;}
	.st1{fill:#D8DE26;}
	.st2{fill:#0D6737;}
	.st3{fill:#3BB54C;}
	.st4{fill:#08683A;}
	.st5{fill:#096839;}
	.st6{fill:#8EC640;}
	.st7{fill:#39B54C;}
	.st8{fill:#1E224F;}
	.st9{fill:#07673A;}
	.st10{fill:#0C9447;}
</style>
  </defs>
  <g id="XMLID_192_">
    <g id="XMLID_24_">
      <g id="XMLID_216_">
        <rect id="XMLID_224_" x="625.7" y="798.9" transform="matrix(0.4596 0.8881 -0.8881 0.4596 1155.3569 -78.242)" class="st6" width="32.5" height="222.7"/>
      </g>
    </g>
    <path id="XMLID_23_" class="st1" d="M656.7,1041.8l148.5-74.3c8.7-4.3,18.9,2,18.9,11.7v186.2l-164.7,84.3L656.7,1041.8z"/>
    <path id="XMLID_43_" class="st1" d="M637.7,1041.8l-148.5-74.3c-8.7-4.3-18.9,2-18.9,11.7v186.2l164.7,84.3L637.7,1041.8z"/>
    <path id="XMLID_54_" class="st5" d="M861,896.9c-0.1,0-0.1-0.1-0.2-0.1c-1.4-1.4-3-2.6-4.8-3.6L657,791.2c-6.7-3.4-14.6-3.4-21.3,0 l-202.6,104c-3.9,2-6.8,5.4-8.1,9.4c-0.9,2.2-1.4,4.6-1.4,7.1v226.4c0,9.9,5.4,18.9,14.1,23.6l197.5,105.8c2.7,1.5,5.8,2.2,8.8,2.2 c0.9,0,1.8-0.1,2.7-0.2c0.7,0.1,1.4,0.1,2.2,0.1c3,0,6.1-0.7,8.8-2.2l197.4-105.7c8.7-4.7,14.1-13.7,14.1-23.6V911.6 C869.2,905.6,866.1,900.1,861,896.9z M646.3,822.3L817,909.9l-170.7,86l-46.2-23.3l-124.5-62.7L646.3,822.3z M456,1127.6V936.4 l174,87.7v203.5l-168-90C458.4,1135.7,456,1131.8,456,1127.6z M830.6,1137.7l-168,90v-203.5l174-87.7v191.2 C836.6,1131.8,834.3,1135.7,830.6,1137.7z"/>
    <g id="XMLID_41_">
      <g id="XMLID_227_">
        <path id="XMLID_228_" class="st5" d="M472,831.9l-112-57.7c-8-4.1-11.1-13.9-7-21.9l0,0c4.1-8,13.9-11.1,21.9-7L487,803 c8,4.1,11.1,13.9,7,21.9l0,0C489.8,832.9,480,836,472,831.9z"/>
      </g>
    </g>
    <g id="XMLID_45_">
      <g id="XMLID_230_">
        <path id="XMLID_231_" class="st5" d="M376.9,918.9L257,858c-8-4.1-11.2-13.9-7.1-21.9l0,0c4.1-8,13.9-11.2,21.9-7.1l119.9,60.9 c8,4.1,11.2,13.9,7.1,21.9l0,0C394.7,919.8,384.9,923,376.9,918.9z"/>
      </g>
    </g>
    <g id="XMLID_47_">
      <g id="XMLID_229_">
        <path id="XMLID_232_" class="st5" d="M197,829.4l-26.2-13.3c-8-4.1-11.2-13.9-7.1-21.9l0,0c4.1-8,13.9-11.2,21.9-7.1l26.2,13.3 c8,4.1,11.2,13.9,7.1,21.9l0,0C214.8,830.3,205,833.5,197,829.4z"/>
      </g>
    </g>
    <g id="XMLID_46_">
      <g id="XMLID_225_">
        <path id="XMLID_226_" class="st5" d="M369.4,1021.5L158.5,914.4c-8-4.1-11.2-13.9-7.1-21.9l0,0c4.1-8,13.9-11.2,21.9-7.1 l210.9,107.2c8,4.1,11.2,13.9,7.1,21.9l0,0C387.2,1022.4,377.4,1025.6,369.4,1021.5z"/>
      </g>
    </g>
    <g id="XMLID_52_">
      <g id="XMLID_222_">
        <path id="XMLID_223_" class="st5" d="M369.4,1129.7l-147.6-75.6c-8-4.1-11.2-13.9-7.1-21.9l0,0c4.1-8,13.9-11.2,21.9-7.1 l147.6,75.6c8,4.1,11.2,13.9,7.1,21.9l0,0C387.2,1130.6,377.4,1133.8,369.4,1129.7z"/>
      </g>
    </g>
  </g>
</svg>